<?xml version="1.0" encoding="utf-8"?>
<!-- Generator: Adobe Illustrator 24.0.1, SVG Export Plug-In . SVG Version: 6.00 Build 0)  -->
<svg version="1.1" id="Camada_1" xmlns="http://www.w3.org/2000/svg" xmlns:xlink="http://www.w3.org/1999/xlink" x="0px" y="0px"
	 viewBox="0 0 372.2 140.5" style="enable-background:new 0 0 372.2 140.5;" xml:space="preserve">
<style type="text/css">
	.st0{fill:#FFFFFF;}
</style>
<g>
	<path class="st0" d="M341.3,117.2c3.6-12.7,1-23.4-9.3-31.4c-8.1-6.3-19.3-6.7-27.7-1.1c-12.3,8.2-14.7,19.9-10.3,34.1
		c-42.4,0.9-84.4,1.8-126.9,2.7c1.7-10.1-0.2-18.7-6.9-26.1c-5.3-5.9-12.1-8.7-19.9-8.7c-8.9,0.1-16.1,4.1-21.3,11.3
		c-5.1,7.2-6.3,15.2-4.2,25c-5.9-2.3-11-4-16-6.2c-1.3-0.5-2.7-1.9-2.9-3.2c-1.2-6.1-2.1-12.2-2.8-18.4c-0.1-0.8,0.8-2.2,1.6-2.7
		c2.8-1.7,3-4.1,2.7-7.1c-0.4-4.6-0.7-9.2-0.6-13.8c0.1-2.2,0.9-4.7,2.2-6.4c5.4-6.9,11.2-13.4,17-20.4c-1.8-0.6-3.3-1-4.9-1.7
		c-0.8-0.4-1.9-1.5-1.7-2.1c0.2-0.9,1.2-1.9,2.1-2.1c12.3-3.3,24.4-6.8,37.2-7.4c21.7-1.1,43.3-2.1,65-3.6
		c19.6-1.4,37,5.6,54.1,13.6c9.1,4.3,17.9,9.4,26.8,14.1c1.2,0.7,2.8,1,4.2,1.3c16.3,2.9,32.8,5.5,49.1,8.5
		c6.9,1.3,11,5.2,14.1,12.1c4.1,8.8,3.7,17.4,3.3,26.3c-0.1,3.8-1.9,6.3-5.1,8.1C354.5,115.2,348.5,117.2,341.3,117.2z M292.1,63.6
		c0.1-0.3,0.3-0.7,0.4-1c-3.9-2.5-7.7-5.2-11.6-7.6c-10.5-6.5-21.2-12.4-33.1-15.9c-20-5.8-40.4-6.1-60.8-4.6
		c-14.5,1.1-29,3.8-43.5,5.9c-4.4,0.6-8.6,1.7-13.7,2.7c4.2,3.9,7.6,7.4,11.4,10.3c1.8,1.5,4.3,2.6,6.5,2.7
		c22.9,1.6,45.8,3.3,68.8,4.5c21,1.1,41.9,1.8,62.8,2.6C283.5,63.6,287.8,63.6,292.1,63.6z"/>
	<path class="st0" d="M89.5,124.5c-1.5,0.7-2.9,1.3-4.4,1.9c-1.7,0.8-3.3,1.7-5,2.4c-1.7,0.6-3.4,1.2-5.2,1.2
		c-5-0.1-10.7-2.1-15-0.5c-6.5,2.5-13-2.1-19,1.4c-0.2,0.1-0.5,0.1-0.7-0.1c-7.9-2.7-16.1,0.5-24.1-1.1c-7.9-1.6-10.7-8.9-7.6-15.5
		c0.7-1.6,1.4-3.3,2-4.9c0.1-0.2,0-0.5,0.2-0.7c1.2-2.4,10.6-6.7,13.3-6.1c2.1,0.5,7.8-2.6,8.7-4.6c1.9-4.7,10.1-6.2,14.5-4.1
		c5.6,2.7,7.2,7.2,8.9,12.3c2.4,7.3,8.1,10.5,15.2,11.6c1,0.2,1.9,0.5,2.7,0.8c2.2,1.2,3,4.4,6.9,3.2c2.3-0.7,5.2,0.9,7.9,1.6
		C89.1,123.8,89.4,124.1,89.5,124.5z"/>
	<path class="st0" d="M295.3,105.2C296.5,93,306.7,84,318.3,85c12.2,1,21,12.1,19.8,24.6c-1.1,12-11.4,21-22.7,20.1
		C303,128.7,294,117.7,295.3,105.2z M318.1,90c-9.6-0.7-17.5,6.3-18.2,16.1c-0.7,9.4,6.2,18,15,18.6c10,0.6,17.9-6.1,18.7-16.1
		C334.2,99.2,327.2,90.7,318.1,90z"/>
	<path class="st0" d="M143.5,92.1c12.4,1.3,21.2,12.3,19.8,24.5c-1.3,12.3-12,21-23.8,19.7c-12-1.4-20.5-12.4-19.2-24.7
		C121.6,99.8,132.3,90.8,143.5,92.1z M158.7,115.3c0.7-9.4-6.5-18-15.5-18.7c-9.3-0.7-17.7,6.8-18.4,16.3c-0.7,9.3,6.9,18.1,16,18.7
		C149.9,132.3,158.1,124.9,158.7,115.3z"/>
</g>
</svg>
