<?xml version="1.0" encoding="utf-8"?>
<!-- Generator: Adobe Illustrator 24.0.1, SVG Export Plug-In . SVG Version: 6.00 Build 0)  -->
<svg version="1.1" id="Camada_1" xmlns="http://www.w3.org/2000/svg" xmlns:xlink="http://www.w3.org/1999/xlink" x="0px" y="0px"
	 viewBox="0 0 1097.22 408.52" style="enable-background:new 0 0 1097.22 408.52;" xml:space="preserve">
<style type="text/css">
	.st0{fill:#FFFFFF;}
</style>
<g>
	<path class="st0" d="M1067.25,252.61c-6.22,20.49-19.9,31.18-42.91,33.74c-8.78,0.98-17.43,0.94-25.88-1.98
		c-16.21-5.61-24.98-19.44-21.44-36.32c3.47-16.55,8.4-32.79,12.69-49.17c1.01-3.86,2.2-7.68,2.92-11.6
		c1.08-5.93-3.91-10.47-9.83-9.2c-6.29,1.34-10.64,5.5-12.87,11.02c-2.91,7.21-4.96,14.83-6.78,22.41
		c-2.95,12.36-5.46,24.83-8.03,37.28c-0.59,2.85-1.8,6.4,1.6,8.08c3.37,1.67,5.79-0.83,7.91-3.33c0.92-1.09,2.19-1.88,3.3-2.81
		c0.89,1.41,2.26,2.72,2.59,4.25c2.18,9.89-1.9,17.82-8.47,24.7c-8.68,9.1-19.9,13.04-31.97,14.87c-9.47,1.44-18.88,1.34-28.07-1.99
		c-15.09-5.47-23.31-18.2-21.01-34.22c1.27-8.84,3.66-17.53,5.91-26.2c3.01-11.57,6.36-23.05,9.59-34.56
		c0.98-3.5,0.83-6.77-2.12-9.25c-2.98-2.5-6.42-2.49-9.87-1.06c-8.12,3.34-11.76,10.34-13.54,18.17
		c-4.85,21.39-9.22,42.89-13.87,64.32c-1.15,5.29,0.06,9.61,4.39,12.97c0.49,0.38,0.93,0.83,1.41,1.24
		c5.7,4.89,4.82,10.68-2.52,12.91c-5.54,1.68-11.45,2.33-17.25,2.9c-18.76,1.83-37.55,3.44-56.33,5.06
		c-3.1,0.27-6.25,0.35-9.36,0.22c-3.51-0.14-6.73-1.14-7.98-4.95c-1.23-3.76,0.84-6.53,3.66-8.23c8.08-4.88,11.47-12.25,13.02-21.19
		c1.72-9.94,4.12-19.76,6.24-29.63c3.62-16.81,7.15-33.65,10.92-50.43c1.35-6-0.36-10.35-5.27-13.94
		c-7.68-5.62-7.59-10.69,0.47-16.02c10.26-6.78,21.83-10.45,33.87-12.15c7.32-1.03,14.98-1.74,22.23-0.73
		c11.77,1.63,19.1,10.38,20.75,22.38c0.08,0.58,0.29,1.15,0.58,2.26c2.86-3.83,5.36-7.31,7.99-10.68
		c12.11-15.55,28.61-22.05,47.75-22.28c17.89-0.22,31.79,11.18,35.85,28.6c0.11,0.47,0.24,0.94,0.57,2.27
		c1.01-1.61,1.71-2.64,2.32-3.72c4.89-8.64,10.34-16.95,18.51-22.8c14.47-10.37,30.45-15.59,48.3-11.37
		c14.18,3.36,22.75,12.77,26.19,26.84c2.6,10.64,0.53,21.05-1.79,31.45c-3.68,16.54-7.23,33.12-10.8,49.69
		c-0.63,2.94-1.57,6.52,1.73,8.07c3.5,1.65,6.03-0.96,8.06-3.75c0.71-0.98,1.67-1.79,3.35-3.56c1.28,2.99,2.28,5.34,3.29,7.68
		C1067.25,250.11,1067.25,251.36,1067.25,252.61z"/>
	<path class="st0" d="M29.38,185.12c2.39-5.95,7.65-6.95,13.1-7.44c22.63-2,45.25-3.95,67.89-5.88c2.61-0.22,5.26-0.36,7.85-0.13
		c8.06,0.72,12.38,8.62,7.37,14.86c-6.61,8.23-6.44,16.32-3.69,25.84c5.15,17.82,9.32,35.91,13.91,53.89
		c0.28,1.08,0.6,2.14,1.09,3.87c5.08-11.21,9.84-21.87,14.73-32.47c7.98-17.3,15.69-34.74,24.2-51.78
		c5.56-11.14,13.92-19.81,26.77-22.72c11.32-2.56,22.11-2.43,31.01,6.52c8.46,8.5,10.53,25.31,4.59,37.12
		c-6,11.93-18.27,18.83-31.15,16.33c-5.27-1.02-10.08-4.37-15.1-6.66c0.04-0.4,0.09-0.79,0.13-1.19c-0.74,1.37-1.53,2.72-2.21,4.13
		c-19.51,40.52-39,81.05-58.51,121.58c-0.81,1.68-1.72,3.32-2.62,4.95c-5.16,9.33-11.52,17.24-22.89,19.14c-0.75,0-1.5,0-2.25,0
		c-11.86-1.23-17.22-9.23-20.38-19.54c-0.22-0.71-0.49-1.41-0.68-2.13c-11.71-42.6-23.55-85.16-35.02-127.82
		c-2.08-7.74-5.92-13.74-11.96-18.82c-2.51-2.11-4.16-5.25-6.2-7.92C29.38,187.62,29.38,186.37,29.38,185.12z"/>
	<path class="st0" d="M485.07,309.03c-7.14,9.27-15.27,16.6-25.41,21.33c-18.2,8.48-36.54,8.65-54.38-0.76
		c-12.6-6.64-17.95-18.18-16.66-31.88c1.14-12.1,4.02-24.05,6.4-36.02c2.57-12.96,5.46-25.85,8.19-38.78
		c0.87-4.11-0.57-7.35-3.88-9.8c-1.2-0.89-2.51-1.63-3.73-2.5c-4.94-3.51-5.45-8.05-0.86-12.08c2.87-2.52,6.18-4.73,9.64-6.33
		c15.63-7.23,32.07-10.86,49.37-10.1c15.88,0.69,25.37,12.22,22.93,28.43c-1.34,8.86-3.42,17.62-5.25,26.41
		c-2.81,13.55-5.69,27.08-8.54,40.62c-0.03,0.12-0.03,0.25-0.05,0.37c-1.1,6.17,0.05,9.73,3.69,11.44
		c4.19,1.97,10.71,0.85,13.51-3.4c2.82-4.28,5.35-9.12,6.5-14.07c4.35-18.82,8.09-37.78,12.07-56.68c0.88-4.16-0.05-7.67-3.53-10.32
		c-0.99-0.75-2-1.5-3.02-2.21c-5.86-4.07-6.58-8.96-0.82-13.23c5.11-3.8,11.03-6.84,17.01-9.09c13.42-5.04,27.37-7.68,41.81-6.61
		c13.75,1.01,22.67,9.92,22.47,22.66c-0.06,3.96-0.62,7.97-1.43,11.86c-5.33,25.75-10.86,51.46-16.09,77.24
		c-0.41,2.05,0.32,5.55,1.75,6.48c2.7,1.75,5.41-0.2,7.32-2.64c0.39-0.49,0.69-1.05,1.08-1.53c2.19-2.73,4.02-2.47,5.32,0.87
		c1.83,4.7,1.04,9.38-0.69,13.89c-3.32,8.66-9.63,14.87-17.42,19.45c-14.44,8.49-29.91,10.83-46.12,6.27
		c-9.24-2.6-16.03-8.38-20.06-17.21C485.94,310.56,485.62,310.05,485.07,309.03z"/>
	<path class="st0" d="M682.43,292.78c-7.08,5.88-13.4,12.47-20.92,17.11c-18.32,11.3-37.82,12.68-57.51,3.48
		c-12.35-5.77-18.98-16.2-18.68-29.59c0.23-10.23,2.54-20.47,4.52-30.6c3.06-15.65,6.62-31.21,9.96-46.81
		c1.04-4.88-0.29-8.11-4.46-10.94c-0.52-0.35-1.04-0.7-1.56-1.04c-7.07-4.7-7.34-9.42-0.57-14.69c7.02-5.46,15.34-8.25,23.74-10.65
		c11.22-3.21,22.66-5.08,34.37-4.24c14,1,22.48,10.12,22.19,24.08c-0.1,4.57-0.92,9.17-1.84,13.67
		c-3.98,19.41-8.13,38.79-12.18,58.19c-1.22,5.85,0.13,9.69,3.83,11.41c4.27,1.99,10.69,0.34,13.89-3.64
		c4.8-5.98,6.08-13.26,7.57-20.48c3.33-16.11,6.69-32.22,10.09-48.32c1.51-7.18,0.64-9.59-5.24-13.71
		c-7.27-5.1-7.37-10.31,0.02-15.45c10.04-6.98,21.6-10.14,33.41-12.39c9.57-1.82,19.24-3.34,28.96-0.93
		c11.78,2.92,19.09,12.87,17.08,24.88c-2.72,16.22-6.3,32.29-9.61,48.4c-2.49,12.09-5.2,24.12-7.66,36.21
		c-0.58,2.84-1.7,6.54,1.66,8.11c3.45,1.61,6.03-0.85,8.06-3.71c0.73-1.02,1.98-1.67,3-2.48c0.97,1.21,2.46,2.29,2.83,3.66
		c1.97,7.15-0.12,13.6-4.28,19.39c-8.05,11.2-19.2,17.84-32.64,19.99c-7.05,1.13-14.49,1.42-21.56,0.54
		C696.49,310.7,687.12,304.12,682.43,292.78z"/>
	<path class="st0" d="M314.73,213.08c3.64-4.25,6.74-8.48,10.44-12.1c12.29-12.06,33.82-14.31,47.77-5.25
		c12.08,7.84,17.34,23.1,13.81,38.68c-3.99,17.55-19.83,26.35-36.52,23.51c-6.56-1.12-10.81-5.45-14.68-10.25
		c-2.26-2.81-4.07-5.98-6.15-8.94c-2.09-2.99-4.2-6.36-8.53-5.5c-4.3,0.86-5.67,4.6-6.53,8.32c-2.07,8.98-3.99,18-5.94,27.01
		c-3.41,15.83-6.77,31.68-10.2,47.51c-1.62,7.5,0.1,11.51,6.72,15.26c1.41,0.8,2.85,1.55,4.21,2.43c5.06,3.27,4.94,8.86-0.57,11.39
		c-3.1,1.42-6.66,2.18-10.08,2.51c-17.64,1.69-35.31,3.14-52.97,4.68c-7.34,0.64-14.66,1.5-22.01,1.86
		c-3.28,0.16-6.8-0.13-9.88-1.17c-4.33-1.47-5.29-5.78-2.49-9.41c1.12-1.45,2.61-2.73,4.16-3.71c6.12-3.86,9.12-9.52,10.58-16.46
		c5.83-27.67,11.75-55.33,17.86-82.94c1.42-6.44-0.2-11.07-5.58-14.87c-7.19-5.08-7.41-9.79-0.15-14.77
		c4.97-3.41,10.59-6.12,16.26-8.21c11.04-4.06,22.53-6.61,34.36-6.57C300.82,196.14,310,201.33,314.73,213.08z"/>
	<path class="st0" d="M1034.54,104.41c2.47-12.96-0.88-23.4-11.94-30.51c-8.64-5.55-19.84-5.14-27.74,1.17
		c-11.56,9.24-13.04,21.07-7.44,34.77c-42.2,4.43-84.04,8.82-126.16,13.24c0.89-10.18-1.77-18.64-9.03-25.42
		c-5.83-5.44-12.81-7.7-20.62-6.99c-8.93,0.81-15.71,5.39-20.29,13.03c-4.54,7.57-4.99,15.72-2.08,25.34
		c-6.13-1.75-11.35-3.11-16.47-4.79c-1.29-0.42-2.9-1.7-3.24-2.9c-1.68-5.96-3.06-12-4.34-18.06c-0.18-0.83,0.61-2.27,1.38-2.83
		c2.69-1.95,2.65-4.34,2.12-7.27c-0.82-4.53-1.46-9.14-1.66-13.73c-0.09-2.19,0.5-4.79,1.7-6.59c4.81-7.27,9.98-14.3,15.17-21.65
		c-1.77-0.45-3.44-0.72-4.98-1.33c-0.81-0.33-2-1.35-1.91-1.9c0.13-0.87,1.02-2.03,1.86-2.33c11.95-4.29,23.82-8.81,36.54-10.5
		c21.51-2.86,43.02-5.69,64.47-8.97c19.43-2.97,37.34,2.47,55.05,9.1c9.44,3.53,18.57,7.88,27.88,11.77
		c1.33,0.56,2.86,0.77,4.32,0.9c16.53,1.47,33.07,2.78,49.59,4.38c7.01,0.68,11.38,4.34,15.14,10.89c4.84,8.41,5.1,16.99,5.51,25.92
		c0.17,3.75-1.43,6.45-4.45,8.49C1047.46,101.32,1041.59,103.85,1034.54,104.41z M980.99,55.06c0.1-0.32,0.21-0.65,0.31-0.97
		c-4.06-2.21-8.09-4.49-12.2-6.61c-10.96-5.64-22.19-10.63-34.35-13.08c-20.36-4.1-40.77-2.7-60.99,0.55
		c-14.43,2.32-28.61,6.23-42.87,9.55c-4.26,0.99-8.43,2.36-13.43,3.77c4.5,3.49,8.17,6.65,12.18,9.31c1.92,1.27,4.48,2.23,6.74,2.2
		c22.97-0.25,45.94-0.54,68.9-1.21c20.95-0.61,41.89-1.67,62.83-2.59C972.42,55.8,976.7,55.38,980.99,55.06z"/>
	<path class="st0" d="M784.19,132.57c-1.4,0.77-2.82,1.52-4.2,2.31c-1.59,0.92-3.09,2.01-4.75,2.78c-1.61,0.74-3.34,1.54-5.06,1.64
		c-5.03,0.31-10.8-1.22-14.96,0.76c-6.25,2.98-13.07-0.96-18.75,3.01c-0.17,0.12-0.5,0.1-0.74,0.04c-8.1-2.02-15.97,1.78-24.08,0.85
		c-7.96-0.92-11.36-7.96-8.94-14.75c0.6-1.69,1.08-3.41,1.61-5.12c0.07-0.23,0.04-0.5,0.13-0.73c1-2.53,9.96-7.58,12.65-7.15
		c2.06,0.33,7.61-3.23,8.25-5.28c1.48-4.77,9.59-7,14.12-5.28c5.75,2.18,7.85,6.56,9.94,11.47c3,7.07,8.88,9.78,16.13,10.3
		c0.95,0.07,1.94,0.26,2.81,0.62c2.29,0.96,3.39,4.1,7.14,2.59c2.19-0.88,5.29,0.51,7.98,0.88
		C783.7,131.86,783.95,132.21,784.19,132.57z"/>
	<path class="st0" d="M987.59,96.35c0.16-12.27,9.62-22.12,21.26-22.11c12.16,0,21.92,10.25,21.79,22.88
		c-0.12,12.06-9.62,21.95-21.05,21.91C997.29,118.99,987.43,108.82,987.59,96.35z M1009.07,79.24c-9.63,0.08-16.88,7.66-16.81,17.59
		c0.07,9.38,7.71,17.38,16.5,17.25c10-0.15,17.33-7.63,17.25-17.61C1025.94,87.03,1018.21,79.17,1009.07,79.24z"/>
	<path class="st0" d="M835.34,95.78c12.48,0.34,22.18,10.49,21.84,22.85c-0.34,12.38-10.16,21.94-22.14,21.57
		c-12.08-0.38-21.49-10.59-21.21-23.01C814.09,105.28,823.95,95.47,835.34,95.78z M852.38,117.75c-0.11-9.39-8.01-17.44-16.98-17.34
		c-9.3,0.1-17.12,8.27-17.01,17.77c0.11,9.29,8.38,17.46,17.53,17.33C845.04,135.37,852.5,127.33,852.38,117.75z"/>
	<path d="M783.62,135.2c1.34-0.8,2.62-1.75,4.05-2.3c0.44-0.17,1.3,0.75,1.97,1.17c-0.41,0.65-0.69,1.7-1.24,1.86
		c-1.37,0.39-2.85,0.36-4.29,0.5C783.95,136.02,783.78,135.61,783.62,135.2z"/>
</g>
</svg>
