<svg width="1098" height="409" viewBox="0 0 1098 409" fill="none" xmlns="http://www.w3.org/2000/svg">
<path d="M1067.25 252.61C1061.03 273.1 1047.35 283.79 1024.34 286.35C1015.56 287.33 1006.91 287.29 998.46 284.37C982.25 278.76 973.48 264.93 977.02 248.05C980.49 231.5 985.42 215.26 989.71 198.88C990.72 195.02 991.91 191.2 992.63 187.28C993.71 181.35 988.72 176.81 982.8 178.08C976.51 179.42 972.16 183.58 969.93 189.1C967.02 196.31 964.97 203.93 963.15 211.51C960.2 223.87 957.69 236.34 955.12 248.79C954.53 251.64 953.32 255.19 956.72 256.87C960.09 258.54 962.51 256.04 964.63 253.54C965.55 252.45 966.82 251.66 967.93 250.73C968.82 252.14 970.19 253.45 970.52 254.98C972.7 264.87 968.62 272.8 962.05 279.68C953.37 288.78 942.15 292.72 930.08 294.55C920.61 295.99 911.2 295.89 902.01 292.56C886.92 287.09 878.7 274.36 881 258.34C882.27 249.5 884.66 240.81 886.91 232.14C889.92 220.57 893.27 209.09 896.5 197.58C897.48 194.08 897.33 190.81 894.38 188.33C891.4 185.83 887.96 185.84 884.51 187.27C876.39 190.61 872.75 197.61 870.97 205.44C866.12 226.83 861.75 248.33 857.1 269.76C855.95 275.05 857.16 279.37 861.49 282.73C861.98 283.11 862.42 283.56 862.9 283.97C868.6 288.86 867.72 294.65 860.38 296.88C854.84 298.56 848.93 299.21 843.13 299.78C824.37 301.61 805.58 303.22 786.8 304.84C783.7 305.11 780.55 305.19 777.44 305.06C773.93 304.92 770.71 303.92 769.46 300.11C768.23 296.35 770.3 293.58 773.12 291.88C781.2 287 784.59 279.63 786.14 270.69C787.86 260.75 790.26 250.93 792.38 241.06C796 224.25 799.53 207.41 803.3 190.63C804.65 184.63 802.94 180.28 798.03 176.69C790.35 171.07 790.44 166 798.5 160.67C808.76 153.89 820.33 150.22 832.37 148.52C839.69 147.49 847.35 146.78 854.6 147.79C866.37 149.42 873.7 158.17 875.35 170.17C875.43 170.75 875.64 171.32 875.93 172.43C878.79 168.6 881.29 165.12 883.92 161.75C896.03 146.2 912.53 139.7 931.67 139.47C949.56 139.25 963.46 150.65 967.52 168.07C967.63 168.54 967.76 169.01 968.09 170.34C969.1 168.73 969.8 167.7 970.41 166.62C975.3 157.98 980.75 149.67 988.92 143.82C1003.39 133.45 1019.37 128.23 1037.22 132.45C1051.4 135.81 1059.97 145.22 1063.41 159.29C1066.01 169.93 1063.94 180.34 1061.62 190.74C1057.94 207.28 1054.39 223.86 1050.82 240.43C1050.19 243.37 1049.25 246.95 1052.55 248.5C1056.05 250.15 1058.58 247.54 1060.61 244.75C1061.32 243.77 1062.28 242.96 1063.96 241.19C1065.24 244.18 1066.24 246.53 1067.25 248.87C1067.25 250.11 1067.25 251.36 1067.25 252.61Z" fill="white"/>
<path d="M29.38 185.12C31.77 179.17 37.03 178.17 42.48 177.68C65.11 175.68 87.73 173.73 110.37 171.8C112.98 171.58 115.63 171.44 118.22 171.67C126.28 172.39 130.6 180.29 125.59 186.53C118.98 194.76 119.15 202.85 121.9 212.37C127.05 230.19 131.22 248.28 135.81 266.26C136.09 267.34 136.41 268.4 136.9 270.13C141.98 258.92 146.74 248.26 151.63 237.66C159.61 220.36 167.32 202.92 175.83 185.88C181.39 174.74 189.75 166.07 202.6 163.16C213.92 160.6 224.71 160.73 233.61 169.68C242.07 178.18 244.14 194.99 238.2 206.8C232.2 218.73 219.93 225.63 207.05 223.13C201.78 222.11 196.97 218.76 191.95 216.47C191.99 216.07 192.04 215.68 192.08 215.28C191.34 216.65 190.55 218 189.87 219.41C170.36 259.93 150.87 300.46 131.36 340.99C130.55 342.67 129.64 344.31 128.74 345.94C123.58 355.27 117.22 363.18 105.85 365.08C105.1 365.08 104.35 365.08 103.6 365.08C91.74 363.85 86.38 355.85 83.22 345.54C83 344.83 82.73 344.13 82.54 343.41C70.83 300.81 58.99 258.25 47.52 215.59C45.44 207.85 41.6 201.85 35.56 196.77C33.05 194.66 31.4 191.52 29.36 188.85C29.38 187.62 29.38 186.37 29.38 185.12Z" fill="white"/>
<path d="M485.07 309.03C477.93 318.3 469.8 325.63 459.66 330.36C441.46 338.84 423.12 339.01 405.28 329.6C392.68 322.96 387.33 311.42 388.62 297.72C389.76 285.62 392.64 273.67 395.02 261.7C397.59 248.74 400.48 235.85 403.21 222.92C404.08 218.81 402.64 215.57 399.33 213.12C398.13 212.23 396.82 211.49 395.6 210.62C390.66 207.11 390.15 202.57 394.74 198.54C397.61 196.02 400.92 193.81 404.38 192.21C420.01 184.98 436.45 181.35 453.75 182.11C469.63 182.8 479.12 194.33 476.68 210.54C475.34 219.4 473.26 228.16 471.43 236.95C468.62 250.5 465.74 264.03 462.89 277.57C462.86 277.69 462.86 277.82 462.84 277.94C461.74 284.11 462.89 287.67 466.53 289.38C470.72 291.35 477.24 290.23 480.04 285.98C482.86 281.7 485.39 276.86 486.54 271.91C490.89 253.09 494.63 234.13 498.61 215.23C499.49 211.07 498.56 207.56 495.08 204.91C494.09 204.16 493.08 203.41 492.06 202.7C486.2 198.63 485.48 193.74 491.24 189.47C496.35 185.67 502.27 182.63 508.25 180.38C521.67 175.34 535.62 172.7 550.06 173.77C563.81 174.78 572.73 183.69 572.53 196.43C572.47 200.39 571.91 204.4 571.1 208.29C565.77 234.04 560.24 259.75 555.01 285.53C554.6 287.58 555.33 291.08 556.76 292.01C559.46 293.76 562.17 291.81 564.08 289.37C564.47 288.88 564.77 288.32 565.16 287.84C567.35 285.11 569.18 285.37 570.48 288.71C572.31 293.41 571.52 298.09 569.79 302.6C566.47 311.26 560.16 317.47 552.37 322.05C537.93 330.54 522.46 332.88 506.25 328.32C497.01 325.72 490.22 319.94 486.19 311.11C485.94 310.56 485.62 310.05 485.07 309.03Z" fill="white"/>
<path d="M682.43 292.78C675.35 298.66 669.03 305.25 661.51 309.89C643.19 321.19 623.69 322.57 604 313.37C591.65 307.6 585.02 297.17 585.32 283.78C585.55 273.55 587.86 263.31 589.84 253.18C592.9 237.53 596.46 221.97 599.8 206.37C600.84 201.49 599.51 198.26 595.34 195.43C594.82 195.08 594.3 194.73 593.78 194.39C586.71 189.69 586.44 184.97 593.21 179.7C600.23 174.24 608.55 171.45 616.95 169.05C628.17 165.84 639.61 163.97 651.32 164.81C665.32 165.81 673.8 174.93 673.51 188.89C673.41 193.46 672.59 198.06 671.67 202.56C667.69 221.97 663.54 241.35 659.49 260.75C658.27 266.6 659.62 270.44 663.32 272.16C667.59 274.15 674.01 272.5 677.21 268.52C682.01 262.54 683.29 255.26 684.78 248.04C688.11 231.93 691.47 215.82 694.87 199.72C696.38 192.54 695.51 190.13 689.63 186.01C682.36 180.91 682.26 175.7 689.65 170.56C699.69 163.58 711.25 160.42 723.06 158.17C732.63 156.35 742.3 154.83 752.02 157.24C763.8 160.16 771.11 170.11 769.1 182.12C766.38 198.34 762.8 214.41 759.49 230.52C757 242.61 754.29 254.64 751.83 266.73C751.25 269.57 750.13 273.27 753.49 274.84C756.94 276.45 759.52 273.99 761.55 271.13C762.28 270.11 763.53 269.46 764.55 268.65C765.52 269.86 767.01 270.94 767.38 272.31C769.35 279.46 767.26 285.91 763.1 291.7C755.05 302.9 743.9 309.54 730.46 311.69C723.41 312.82 715.97 313.11 708.9 312.23C696.49 310.7 687.12 304.12 682.43 292.78Z" fill="white"/>
<path d="M314.73 213.08C318.37 208.83 321.47 204.6 325.17 200.98C337.46 188.92 358.99 186.67 372.94 195.73C385.02 203.57 390.28 218.83 386.75 234.41C382.76 251.96 366.92 260.76 350.23 257.92C343.67 256.8 339.42 252.47 335.55 247.67C333.29 244.86 331.48 241.69 329.4 238.73C327.31 235.74 325.2 232.37 320.87 233.23C316.57 234.09 315.2 237.83 314.34 241.55C312.27 250.53 310.35 259.55 308.4 268.56C304.99 284.39 301.63 300.24 298.2 316.07C296.58 323.57 298.3 327.58 304.92 331.33C306.33 332.13 307.77 332.88 309.13 333.76C314.19 337.03 314.07 342.62 308.56 345.15C305.46 346.57 301.9 347.33 298.48 347.66C280.84 349.35 263.17 350.8 245.51 352.34C238.17 352.98 230.85 353.84 223.5 354.2C220.22 354.36 216.7 354.07 213.62 353.03C209.29 351.56 208.33 347.25 211.13 343.62C212.25 342.17 213.74 340.89 215.29 339.91C221.41 336.05 224.41 330.39 225.87 323.45C231.7 295.78 237.62 268.12 243.73 240.51C245.15 234.07 243.53 229.44 238.15 225.64C230.96 220.56 230.74 215.85 238 210.87C242.97 207.46 248.59 204.75 254.26 202.66C265.3 198.6 276.79 196.05 288.62 196.09C300.82 196.14 310 201.33 314.73 213.08Z" fill="white"/>
<path d="M1034.54 104.41C1037.01 91.45 1033.66 81.01 1022.6 73.9C1013.96 68.35 1002.76 68.76 994.86 75.07C983.3 84.31 981.82 96.14 987.42 109.84C945.22 114.27 903.38 118.66 861.26 123.08C862.15 112.9 859.49 104.44 852.23 97.66C846.4 92.22 839.42 89.96 831.61 90.67C822.68 91.48 815.9 96.06 811.32 103.7C806.78 111.27 806.33 119.42 809.24 129.04C803.11 127.29 797.89 125.93 792.77 124.25C791.48 123.83 789.87 122.55 789.53 121.35C787.85 115.39 786.47 109.35 785.19 103.29C785.01 102.46 785.8 101.02 786.57 100.46C789.26 98.51 789.22 96.12 788.69 93.19C787.87 88.66 787.23 84.05 787.03 79.46C786.94 77.27 787.53 74.67 788.73 72.87C793.54 65.6 798.71 58.57 803.9 51.22C802.13 50.77 800.46 50.5 798.92 49.89C798.11 49.56 796.92 48.54 797.01 47.99C797.14 47.12 798.03 45.96 798.87 45.66C810.82 41.37 822.69 36.85 835.41 35.16C856.92 32.3 878.43 29.47 899.88 26.19C919.31 23.22 937.22 28.66 954.93 35.29C964.37 38.82 973.5 43.17 982.81 47.06C984.14 47.62 985.67 47.83 987.13 47.96C1003.66 49.43 1020.2 50.74 1036.72 52.34C1043.73 53.02 1048.1 56.68 1051.86 63.23C1056.7 71.64 1056.96 80.22 1057.37 89.15C1057.54 92.9 1055.94 95.6 1052.92 97.64C1047.46 101.32 1041.59 103.85 1034.54 104.41ZM980.99 55.06C981.09 54.74 981.2 54.41 981.3 54.09C977.24 51.88 973.21 49.6 969.1 47.48C958.14 41.84 946.91 36.85 934.75 34.4C914.39 30.3 893.98 31.7 873.76 34.95C859.33 37.27 845.15 41.18 830.89 44.5C826.63 45.49 822.46 46.86 817.46 48.27C821.96 51.76 825.63 54.92 829.64 57.58C831.56 58.85 834.12 59.81 836.38 59.78C859.35 59.53 882.32 59.24 905.28 58.57C926.23 57.96 947.17 56.9 968.11 55.98C972.42 55.8 976.7 55.38 980.99 55.06Z" fill="white"/>
<path d="M784.19 132.57C782.79 133.34 781.37 134.09 779.99 134.88C778.4 135.8 776.9 136.89 775.24 137.66C773.63 138.4 771.9 139.2 770.18 139.3C765.15 139.61 759.38 138.08 755.22 140.06C748.97 143.04 742.15 139.1 736.47 143.07C736.3 143.19 735.97 143.17 735.73 143.11C727.63 141.09 719.76 144.89 711.65 143.96C703.69 143.04 700.29 136 702.71 129.21C703.31 127.52 703.79 125.8 704.32 124.09C704.39 123.86 704.36 123.59 704.45 123.36C705.45 120.83 714.41 115.78 717.1 116.21C719.16 116.54 724.71 112.98 725.35 110.93C726.83 106.16 734.94 103.93 739.47 105.65C745.22 107.83 747.32 112.21 749.41 117.12C752.41 124.19 758.29 126.9 765.54 127.42C766.49 127.49 767.48 127.68 768.35 128.04C770.64 129 771.74 132.14 775.49 130.63C777.68 129.75 780.78 131.14 783.47 131.51C783.7 131.86 783.95 132.21 784.19 132.57Z" fill="white"/>
<path d="M987.59 96.35C987.75 84.08 997.21 74.23 1008.85 74.24C1021.01 74.24 1030.77 84.49 1030.64 97.12C1030.52 109.18 1021.02 119.07 1009.59 119.03C997.29 118.99 987.43 108.82 987.59 96.35ZM1009.07 79.24C999.44 79.32 992.19 86.9 992.26 96.83C992.33 106.21 999.97 114.21 1008.76 114.08C1018.76 113.93 1026.09 106.45 1026.01 96.47C1025.94 87.03 1018.21 79.17 1009.07 79.24Z" fill="white"/>
<path d="M835.34 95.78C847.82 96.12 857.52 106.27 857.18 118.63C856.84 131.01 847.02 140.57 835.04 140.2C822.96 139.82 813.55 129.61 813.83 117.19C814.09 105.28 823.95 95.47 835.34 95.78ZM852.38 117.75C852.27 108.36 844.37 100.31 835.4 100.41C826.1 100.51 818.28 108.68 818.39 118.18C818.5 127.47 826.77 135.64 835.92 135.51C845.04 135.37 852.5 127.33 852.38 117.75Z" fill="white"/>
<path d="M783.62 135.2C784.96 134.4 786.24 133.45 787.67 132.9C788.11 132.73 788.97 133.65 789.64 134.07C789.23 134.72 788.95 135.77 788.4 135.93C787.03 136.32 785.55 136.29 784.11 136.43C783.95 136.02 783.78 135.61 783.62 135.2Z" fill="white"/>
</svg>
