<?xml version="1.0" encoding="utf-8"?>
<!-- Generator: Adobe Illustrator 24.0.1, SVG Export Plug-In . SVG Version: 6.00 Build 0)  -->
<svg version="1.1" id="Camada_1" xmlns="http://www.w3.org/2000/svg" xmlns:xlink="http://www.w3.org/1999/xlink" x="0px" y="0px"
	 viewBox="0 0 171 72.8" style="enable-background:new 0 0 171 72.8;" xml:space="preserve">
<style type="text/css">
	.st0{fill:#FFFFFF;}
</style>
<g transform="translate(0.000000,200.000000) scale(0.100000,-0.100000)">
	<path class="st0" d="M759.1,1954.9c-79-7-101-20-196-117l-72-73l-98-11c-113-12-202-33-255-60c-46-24-89-74-89-105c0-12-7-29-16-36
		c-13-10-15-25-11-65c8-75,21-94,62-94c35,0,35,0,35,47c0,171,198,259,329,146c41-34,71-103,71-161v-24l243,6c133,3,294,9,358,12
		l117,6l5,44c10,92,82,156,182,162c105,7,180-48,205-150c9-35,17-48,30-48c22,0,29,17,37,90c5,49,3,60-14,77c-11,11-23,39-27,62
		c-7,48-41,121-56,121c-5,0-25,24-43,53c-19,28-41,58-50,66c-10,7-17,21-17,31s-7,21-16,24C1453.1,1965.9,847.1,1962.9,759.1,1954.9
		z M1438.1,1852.9c23-40,40-73,39-75c-2-1-78-6-171-10l-167-7v76v76l33,4c17,2,75,5,129,5l96,2L1438.1,1852.9z M1077.1,1836.9l-3-78
		l-230-10c-126-6-232-10-234-8c-2,1,29,41,68,88l72,85h165h165L1077.1,1836.9z M1627.1,1701.9c19-74-12-81-34-7c-19,62-18,72,5,60
		C1608.1,1748.9,1621.1,1725.9,1627.1,1701.9z M1102.1,1698.9c8-19,1-22-58-26c-40-3-50-1-53,13c-3,17,16,24,74,27
		C1085.1,1712.9,1099.1,1707.9,1102.1,1698.9z M179.1,1677.9c0-25-79-99-91-87c-22,22,41,103,78,103
		C173.1,1693.9,179.1,1686.9,179.1,1677.9z"/>
	<path class="st0" d="M249.1,1575.9c-47-25-83-93-76-146c8-68,64-124,132-132c52-7,120,29,145,76
		C521.1,1504.9,381.1,1644.9,249.1,1575.9z M383.1,1507.9c67-68-8-180-96-143c-31,13-58,54-58,89c0,12,13,35,29,51
		C297.1,1542.9,346.1,1544.9,383.1,1507.9z"/>
	<path class="st0" d="M1369.1,1575.9c-47-25-83-93-76-146c8-68,64-124,132-132c52-7,120,29,145,76
		C1641.1,1504.9,1501.1,1644.9,1369.1,1575.9z M1503.1,1507.9c67-68-8-180-96-143c-31,13-58,54-58,89c0,12,13,35,29,51
		C1417.1,1542.9,1466.1,1544.9,1503.1,1507.9z"/>
	<path class="st0" d="M731.1,1393.9c-133-4.8-194-8.3-214.6-14.2c-0.7-3.5-1.8-6.9-3.1-10.2c20-1.2,128.3,0.8,255.7,4.4
		c140,5,306,9,368,10c42.4,0,75.2,1.6,94.1,4.2c0.7,3.5,1.4,7,2.3,10.4C1183.6,1404.6,1012.6,1403,731.1,1393.9z"/>
</g>
<path class="st0" d="M122.8,59l-70.7,2.2c-0.1,0-0.2,0-0.3,0.1c0,0.7-0.3,1.4-0.6,2.1c0.2,0.3,0.6,0.4,1,0.4l70.5-2.2
	c0.1,0,0.2-0.1,0.3-0.1c0,0,0,0,0.1,0c0.1-0.7,0.3-1.5,0.6-2.2C123.4,59.1,123.1,59,122.8,59z"/>
</svg>
