<?xml version="1.0" encoding="utf-8"?>
<!-- Generator: Adobe Illustrator 24.0.1, SVG Export Plug-In . SVG Version: 6.00 Build 0)  -->
<svg version="1.1" id="Camada_1" xmlns="http://www.w3.org/2000/svg" xmlns:xlink="http://www.w3.org/1999/xlink" x="0px" y="0px"
	 viewBox="0 0 436.98 501.64" style="enable-background:new 0 0 436.98 501.64;" xml:space="preserve">
<style type="text/css">
	.st0{fill:#FFFFFF;}
</style>
<g>
	<path class="st0" d="M16.03,59.2c0-11.33,0-22.66,0-34c1.99-0.19,3.98-0.54,5.97-0.54c25.99-0.03,51.98-0.15,77.96,0.16
		c3.09,0.04,6.88,1.67,9.12,3.84c18,17.33,35.68,34.99,53.57,52.43c1.38,1.35,3.6,1.84,5.43,2.73c0.76-1.76,1.86-3.44,2.21-5.28
		c1.87-9.78,3.2-19.67,5.37-29.37c4.5-20.17,27.51-36.41,46.71-36.67c31.98-0.43,63.97-0.36,95.95-0.15
		c9.03,0.06,18.01-0.61,27.05,2.83c14.45,5.49,25.62,14.16,31.83,28.23c2.34,5.29,2.55,11.53,3.65,17.35
		c2,10.59,4.36,21.13,5.75,31.8c0.77,5.9,3.26,9.45,8.58,11.61c3.06,1.24,6.1,2.72,8.84,4.55c16.74,11.16,23.82,27.92,23.91,46.98
		c0.44,92.62,0.29,185.25,0.07,277.88c-0.02,6.5-1.31,13.36-3.65,19.42c-6.09,15.82-16.95,27.19-33.67,32.25
		c-1.4,0.42-2.48,1.9-3.71,2.89c-102.65,0-205.31,0-307.96,0c-2.34-1.36-4.61-2.9-7.04-4.07c-21.34-10.25-32.98-27.05-33.02-50.84
		c-0.17-108.94-0.06-217.88-0.15-326.82c0-4.27,1.4-7.34,4.73-9.82c5.34-3.97,10.24-8.73,16-11.91c7.81-4.31,9.79-10.38,8.95-18.64
		c-0.44-4.28-1.89-5.8-6.13-5.73c-12.66,0.19-25.32,0.15-37.98,0.03C21.59,60.32,18.81,59.6,16.03,59.2z M230.42,421.14
		c40.48,0,80.96,0.01,121.45-0.01c6.64,0,7.44-0.89,7.44-7.52c-0.01-79.13-0.01-158.26-0.01-237.39c0-8.28-0.56-8.84-8.75-8.84
		c-79.8,0-159.6,0.01-239.39,0c-8.15,0-8.43,0.27-8.43,8.38c0,79.46,0,158.93-0.01,238.39c0,6.22,0.73,6.98,6.76,6.98
		C149.78,421.14,190.1,421.14,230.42,421.14z M277.94,80.98c18.66,0,37.33,0.03,55.99-0.02c6.07-0.02,7.77-2.21,6.48-8.12
		c-0.82-3.74-2.51-7.45-2.52-11.18c-0.03-12.44-12.86-22.66-23.46-23.29c-11.96-0.71-23.97-0.83-35.95-0.81
		c-12.65,0.02-25.37-0.17-37.93,1.02c-10.01,0.95-17.77,6.74-21.13,16.64c-2.27,6.68-3.63,13.7-5.02,20.64
		c-0.23,1.15,1.16,3.3,2.34,3.9c1.82,0.91,4.12,1.18,6.22,1.19C241.28,81.03,259.61,80.99,277.94,80.98z"/>
</g>
</svg>
