<?xml version="1.0" encoding="utf-8"?>
<!-- Generator: Adobe Illustrator 24.0.1, SVG Export Plug-In . SVG Version: 6.00 Build 0)  -->
<svg version="1.1" id="Camada_1" xmlns="http://www.w3.org/2000/svg" xmlns:xlink="http://www.w3.org/1999/xlink" x="0px" y="0px"
	 viewBox="0 0 416 272" style="enable-background:new 0 0 416 272;" xml:space="preserve">
<style type="text/css">
	.st0{fill:#FFFFFF;}
</style>
<g transform="translate(0.000000,586.000000) scale(0.100000,-0.100000)">
	<path class="st0" d="M1832.5,5766.9c-190.5-4-562.5-21-655-29.5c-39.5-3.5-32.5,1-127-84c-143-128-230-240-337.5-434.5
		c-24.5-43-46-80-49-81.5c-2.5-1.5-9,1-14.5,6c-8,7-9.5,15.5-9.5,49c0,70.5-2.5,72.5-82.5,76.5c-77.5,4-154-16.5-185.5-49
		c-11-11.5-14.5-20-16-44c-3-38.5,5-61,29-82.5c22-19.5,54.5-30.5,105-35.5l32.5-3l21.5,25c14.5,17,27.5,27,40,30.5
		c30.5,8,35.5,5.5,8.5-5c-26.5-10.5-37.5-21-37.5-36c0-7,4-9,19-9c19.5,0,55-7,59.5-12c1.5-1.5-14.5-22.5-36-46.5
		c-21-24-50-59-63.5-77.5c-14-19-26-34-27-34s1,7,4,15.5c5,14,17,32.5,49,75l12.5,16.5l-20-12c-46.5-27.5-109-72.5-153.5-110
		c-50-41.5-225.5-219.5-246.5-250c-15-21.5-48-147.5-60-227.5c-4.5-30-9.5-79.5-11-110l-3-55l21-21c12-11.5,33-27,47-34l26-12.5
		l-20,3c-25,4-52,15-64,25.5c-8.5,8-9,7-6-31.5c4.5-59.5,22.5-428,22.5-457c0-18.5,2-25,7.5-25c23,0,104-45,96-53c-1-1.5-21,7-44,18
		c-22.5,11-44,20-47.5,20c-25,0-8.5-270.5,20.5-334c16-34.5,62.5-83.5,89.5-93.5c18-7,51.5-7,287.5-3.5l266.5,4l9.5,11.5
		c5,6.5,9.5,18,9.5,26c0,14.5,0,14.5-32,14.5c-27.5,0-106.5,11.5-111,16.5c-1,0.5,151,1.5,337,1h338.5l72.5,13.5
		c121.5,22.5,169.5,24,675,24s553.5-1.5,675-24l72.5-13.5h340c289.5,0.5,336.5-0.5,317.5-6.5c-12.5-3.5-45.5-8-73.5-9.5l-51.5-3
		v-13.5c0-7.5,4.5-19,9.5-25.5l9.5-11.5l266.5-4c308-5,291-7,336.5,41c41,43,51,68,63,161.5c10,77,13,181.5,7,213
		c-3,14.5-5,16-16.5,13c-7-1.5-28.5-11-47-20.5c-19-10-35.5-16.5-36.5-15.5c-8.5,8.5,72,53.5,95.5,53.5c5.5,0,7.5,6.5,7.5,25
		c0,29,18,397.5,22.5,457c3,38.5,2.5,39.5-6,31.5c-12-10.5-39-21.5-64-25.5l-20-3l26,12.5c14,7,35,22.5,47,34l21,21l-3,55
		c-1.5,30.5-6.5,80-11,110c-12,80-45,206-60,227.5c-21.5,31-193,205-245,248.5c-46.5,39-108,83.5-155,111.5l-20,12l12.5-16.5
		c32-42.5,44-61,49-75c3-8.5,4.5-15.5,4-15.5c-1,0-14.5,17-30,37.5c-15,20-44,55-63.5,77.5c-19.5,22-34.5,41.5-33,43
		c4.5,5,40,12,60,12c14.5,0,18.5,2,18.5,9c0,15-11,25.5-37.5,36c-27,10.5-22,13,8.5,5c13-3.5,25.5-13.5,40-30.5l21-25l33,3
		c51,5,83,16,105,35.5c24,21.5,32,44,29,82.5c-1.5,24-5,32.5-16,44c-31.5,33-108,53-185.5,48.5c-27.5-1.5-55-4-61.5-6
		c-16-4.5-21-20.5-21-69c0-34.5-1.5-43-9.5-50c-5.5-5-12-7.5-14.5-6c-3,1.5-24.5,38.5-49,81.5c-83,150-133.5,223-223,321.5
		c-44.5,48.5-133,132.5-192,181.5c-15,12.5-20.5,13.5-120,20.5C2594,5765.4,2178.5,5774.9,1832.5,5766.9z M1155,5706.4
		c-17-16.5-25.5-31-18-31c1,0,51,4.5,111,10c118.5,10.5,276.5,21,462,31c154.5,8,673,8,820,0c157-9,297-19.5,402-31
		c49.5-5.5,90.5-10,91.5-10c7,0-2,15-18.5,31c-24.5,23-22,24,8,3.5c87-59.5,248.5-280,397-541.5l16.5-29.5l-59.5,3.5
		c-184.5,10.5-241,13.5-407,20.5c-654.5,27-1441.5,22-2030-12.5c-42.5-2.5-104.5-6-137-8l-59.5-3.5l16.5,29.5
		c142.5,252,303.5,473,393,538.5C1175,5730.9,1180.5,5730.4,1155,5706.4z M895,4737.9c25-57.5,48-107.5,51-111
		c3.5-4.5,19.5-6.5,48.5-6.5c41.5,0,141-7.5,173.5-12.5c12.5-2,15.5-5,13.5-11.5c-2-8.5-6-8.5-65.5-2.5c-35,4-89,8.5-120.5,10.5
		l-57.5,3.5l-44,110c-24.5,60.5-45.5,114.5-47,120C839,4863.4,853,4834.9,895,4737.9z M3268.5,4724.9l-46.5-117l-57-3.5
		c-31.5-2-86-6.5-121-10.5c-59.5-6-63.5-6-65.5,2.5c-2,6.5,1,9.5,13.5,11.5c32.5,5,132.5,12.5,174,12.5c40,0,44.5,1,51,11.5
		c4,6,27,56.5,51,112c24,56,44.5,100.5,45.5,99.5S3294.5,4788.9,3268.5,4724.9z M560,4667.9c102-33,166-44.5,310-55.5l37.5-2.5
		l111-221c101-201,116-234,164-363.5c80-215.5,133.5-318.5,213.5-408c56-63.5,73.5-76.5,112-84.5c89.5-18.5,252.5-31.5,424.5-33
		l75-1l-112.5-4.5c-133.5-5.5-292,1-385,16l-62.5,10l-21.5,24c-79,86.5-133,165.5-181,263.5c-36,73.5-44.5,94-98,242.5
		c-30.5,85-77.5,197.5-86.5,206.5c-2,2-52,6-111,8.5c-376,18-609.5,48.5-697,90.5c-42.5,20-58.5,44-61.5,91.5
		c-2,31,9.5,150.5,17,180c2,8.5,17,15,78.5,34.5C414.5,4701.9,452,4702.9,560,4667.9z M3762.5,4690.4c19.5-2.5,69-15.5,111-28.5
		c61.5-19.5,76.5-26,78.5-34.5c7.5-29.5,19-149,17-180c-3-47.5-19-71.5-61.5-91.5c-87.5-42-321-72.5-697-90.5
		c-59-2.5-109-6.5-111-8.5c-9.5-10-57.5-125-96.5-233c-24-65.5-52.5-139.5-63-164.5c-50-115.5-110-208-200-308l-27.5-30.5
		l-62.5-10.5c-92.5-15-251-22-385-16l-112.5,4.5l75,1c172,1.5,335,14.5,424.5,33c29,6,38,10.5,60,31c111,103.5,172,210,265.5,461.5
		c48,130,62.5,162,164,363.5l111,221l37.5,2.5c144,11,208,22.5,310,55.5C3685.5,4695.9,3705,4698.4,3762.5,4690.4z M1772.5,4668.4
		c47-4,113.5-10,147.5-13.5c65.5-7,65-7,90.5-37.5c4.5-5,12-12,17-14.5c7.5-4.5,9.5-19.5,16-100c15.5-207.5-8-313.5-74-332.5
		c-23-7-403-6.5-466.5,0c-64.5,6.5-102,16.5-148,39c-71.5,35-127.5,107.5-147.5,191c-17,72.5-14,168,6.5,210c15.5,32,81,54.5,186,65
		C1461.5,4680.9,1663.5,4677.4,1772.5,4668.4z M2750,4675.4c91.5-8,142.5-20.5,176.5-43.5c27-18.5,36-51,35.5-131.5
		c-0.5-105.5-27-179-86.5-239.5c-53-53.5-117-80-218.5-90.5c-65.5-7-441.5-7-467,0c-64.5,17.5-89,123.5-74,325
		c6.5,88,9,103,16.5,107.5c9,5,14.5,11,31.5,32c8.5,11,16,13,66.5,18.5c55.5,6.5,226.5,20.5,287,23.5
		C2590,4680.9,2697,4679.9,2750,4675.4z M702.5,3800.4c140.5-5.5,428-24,432-28c1.5-1,0-4.5-2.5-7c-3.5-3.5-47.5-1.5-132.5,5.5
		c-206.5,17-445,20-546.5,7l-29.5-4l15-13c46-39,46.5-106.5,1.5-147.5c-20.5-18.5-66-35-86-32c-10.5,2-10,2.5,3.5,6
		c58.5,15,87.5,46.5,87.5,95c0,29-7,46.5-26.5,67c-19,19.5-31.5,20.5-81.5,3.5c-42-14-57-22.5-80.5-44.5c-22-20-21-10,1.5,16.5
		c42,49,100.5,68,229.5,75.5c36,2,68.5,4,72.5,4C564,3804.9,628.5,3802.9,702.5,3800.4z M3737.5,3794.4c83-9.5,130-29.5,164.5-69.5
		c22.5-26.5,23.5-36.5,2-16.5c-24,22-39,30.5-81,44.5c-50,17-62.5,16-81.5-3.5c-19.5-20.5-26.5-38-26.5-67c0-48.5,29-80,87.5-95
		c13.5-3.5,14-4,3.5-6c-20-3-65.5,13.5-86,32c-45,41-44.5,105.5,1,147l15,13.5l-29.5,4c-101,13-340,10-546-7c-85-7-129-9-132.5-5.5
		c-2.5,2.5-4,6-2.5,7c3.5,3.5,288.5,23,409.5,27.5C3554.5,3804.9,3669.5,3802.9,3737.5,3794.4z M1570,3737.9
		c370-24.5,722-23.5,1059.5,2.5c70,5.5,128,9,129.5,7.5c3-3-35.5-68.5-56-95c-22.5-30-48-52.5-71.5-63
		c-24.5-11.5-89.5-21.5-194-30.5s-638.5-9-737.5,0c-91,8.5-167.5,20-188.5,28.5c-20.5,8.5-63,48-82.5,76.5c-16,23.5-49,80.5-49,84.5
		c0,1.5,17.5,1.5,39,0C1440,3746.9,1508,3742.4,1570,3737.9z M1007.5,3675.4c181-7,188.5-8,197-21c6.5-10.5,6-10.5-22.5-7
		c-76,9-239.5,23-334.5,28c-57.5,3-107,6.5-110,8C732.5,3685.4,764,3684.4,1007.5,3675.4z M3422.5,3682.9c-2.5-1-52-4.5-110-7.5
		c-95-5-258.5-19-334.5-28c-28.5-3.5-29-3.5-22.5,7c8.5,13.5,17,14.5,214.5,21c86.5,3,162,6.5,167.5,7
		C3351.5,3684.9,3428.5,3684.9,3422.5,3682.9z M1323.5,3467.9c221-13.5,382.5-17.5,756.5-17.5s535.5,4,756.5,17.5
		c144.5,9,133.5,9,133.5,0c0-5-5-7.5-16-7.5c-9,0-80.5-3.5-159-7.5c-454.5-23.5-975.5-23.5-1430,0c-78.5,4-150,7.5-158.5,7.5
		c-11.5,0-16.5,2.5-16.5,7.5C1190,3476.9,1179,3476.9,1323.5,3467.9z M551.5,3395.4c91.5-8,203.5-17,249.5-20.5
		c109-7.5,319-3.5,364,7c18,4.5,33,7,34,6c4.5-4.5-33.5-19-68-26c-47.5-9.5-219-10.5-326-2c-127.5,10.5-429.5,43-442.5,48
		C350,3412.4,397.5,3409.4,551.5,3395.4z M3797.5,3407.9c-13-5-315-37.5-442.5-48c-107-8.5-278.5-7.5-326,2
		c-36.5,7.5-72.5,21.5-67.5,26.5c1,1,16.5-1.5,34-6c23.5-6,64.5-9,157.5-10.5c132.5-2.5,230,2.5,477,26
		C3742.5,3408.4,3810,3412.4,3797.5,3407.9z"/>
	<path class="st0" d="M304.5,4576.9c-9.5-20-12-32-12-69c0-54,11.5-81.5,47.5-118c69.5-69.5,192.5-53.5,239.5,31l12.5,22l-17-14.5
		c-29.5-24.5-58.5-34.5-100-34.5c-43,0-72,10.5-102.5,37c-39,34.5-61.5,92.5-55.5,143c1.5,14.5,2,26.5,1,26.5
		S311,4589.9,304.5,4576.9z"/>
	<path class="st0" d="M755.5,4411.4c-7.5-26.5-3.5-47,13-72.5c13.5-21,44.5-38.5,69-38.5c22,0,54.5,16.5,66.5,33.5l10.5,15l-23-12
		c-27-13.5-44.5-14.5-70-4c-34,14-49.5,36-56,77l-4,23L755.5,4411.4z"/>
	<path class="st0" d="M3843,4575.4c6-53-18.5-113.5-59-147.5c-28.5-24-57.5-34-99-34s-70.5,10-99,33.5c-20,17-20.5,13.5-1.5-14
		c55-79.5,168.5-91,235.5-23.5c36,36.5,47.5,64,47.5,118c0,39.5-1.5,48-13.5,70l-13.5,25L3843,4575.4z"/>
	<path class="st0" d="M3395,4416.4c0-19-11.5-49-24-63c-11.5-13-45.5-28-64-28c-8.5,0-25.5,5.5-38.5,11.5l-23,12l10.5-15
		c12-17,44.5-33.5,66.5-33.5c45,0,84.5,41,84.5,87c0,14-2.5,30-6,35.5C3396,4431.9,3395.5,4431.4,3395,4416.4z"/>
	<path class="st0" d="M1238,4573.9c-7-38,12.5-145.5,35-189c18-36,22.5-35.5,19.5,4c-1.5,18.5-5,70-7.5,113.5c-3,44-6,80.5-7,81.5
		s-9.5,3-19,5C1242,4591.4,1241,4590.9,1238,4573.9z"/>
	<path class="st0" d="M1297,4549.4c1.5-20,5.5-74.5,8.5-121c2.5-47,6-86,7-87.5c3.5-5.5,37.5-22,40-19.5c1.5,1.5-1,56-5,122
		c-4,65.5-7.5,124.5-7.5,131c0,10-2.5,11-23,11h-23L1297,4549.4z"/>
	<path class="st0" d="M1355,4574.4c0-22.5,15.5-257,17.5-262c2-6.5,36.5-19.5,40.5-16c2,2-12.5,280.5-14.5,282
		c-0.5,0.5-10.5,2-22,3.5C1357.5,4583.9,1355,4583.4,1355,4574.4z"/>
	<path class="st0" d="M1417,4526.9c9.5-164,14-239,15-240c0.5-0.5,10.5-3,22.5-6l21.5-4.5l-3,43c-2,24-5.5,90.5-8.5,148
		c-2.5,58-6,106.5-7.5,109c-1.5,2-11.5,4-23,4h-20L1417,4526.9z"/>
	<path class="st0" d="M1475,4563.9c0-19,15.5-290.5,16.5-291.5c0.5-0.5,10.5-2.5,22.5-4.5c19.5-3,21-2.5,21,8.5
		c0,6-3.5,70-7.5,141.5s-7.5,136-7.5,144c0,12.5-1.5,13.5-22.5,13.5C1477.5,4575.4,1475,4574.4,1475,4563.9z"/>
	<path class="st0" d="M1535,4566.9c0-5,3.5-67.5,7.5-139s7.5-138,7.5-148c0-18,0.5-18.5,22.5-20.5l22.5-1.5v27.5
		c0,50-14,279.5-17.5,285c-1.5,2.5-12,5-23,5C1539,4575.4,1535,4573.4,1535,4566.9z"/>
	<path class="st0" d="M1965,4559.4c0-41.5,11-249,14.5-269l4-22.5l10.5,22.5c17.5,37.5,22.5,83,19.5,176.5
		c-3,106-3.5,108.5-29,108.5C1966,4575.4,1965,4574.9,1965,4559.4z"/>
	<path class="st0" d="M1596.5,4549.4c1.5-12,6-83,9-157.5l6.5-136.5h23h23.5l-2.5,39c-1,21-4.5,91.5-7.5,156l-6,117.5l-24.5,1.5
		l-24,1.5L1596.5,4549.4z"/>
	<path class="st0" d="M1660,4534.4c0.5-27.5,13-275.5,14.5-282.5c0.5-1,10.5-1.5,23-1.5c14.5,0,22.5,2,22.5,6.5
		c0,3-3.5,64.5-7.5,136s-7.5,140.5-7.5,154v23.5h-22.5H1660V4534.4z"/>
	<path class="st0" d="M1720,4549.4c0-12,3.5-79,7.5-149s7.5-132.5,7.5-138.5c0-10,2.5-11.5,22.5-11.5c27,0,25-18.5,15,162.5
		c-4,71.5-7.5,136-7.5,144c0,12.5-1.5,13.5-22.5,13.5H1720V4549.4z"/>
	<path class="st0" d="M1780,4561.9c0-5,3.5-67.5,7.5-139s7.5-139.5,7.5-151v-21.5h22.5h22.5v29c0,20.5-10.5,220-15,290
		c0,0.5-10,1-22.5,1C1784.5,4570.4,1780,4568.9,1780,4561.9z"/>
	<path class="st0" d="M1841.5,4544.4c2-14.5,6-85.5,9-157.5l6-131.5h23h23.5l-2,34c-1,18.5-4.5,88.5-7.5,156l-6,122.5l-24.5,1.5
		l-24,1.5L1841.5,4544.4z"/>
	<path class="st0" d="M1904,4539.4c1-17.5,4.5-87,8-155s7-124.5,8.5-125.5c1-1,12-1,23.5,0.5l22,2l-3,28.5
		c-1.5,15.5-5.5,85-8.5,154.5l-6,126h-23h-23L1904,4539.4z"/>
	<path class="st0" d="M2889.5,4586.9c-9.5-2.5-12.5-23.5-17-124c-1.5-33-4-71-6-84.5c-3.5-30,3.5-27.5,20.5,6.5
		c22,43.5,42,151,35,188.5C2919,4590.4,2912.5,4593.4,2889.5,4586.9z"/>
	<path class="st0" d="M2779,4581.9c-13.5-1.5-19-4.5-19-10.5c0-4.5-3.5-68-7.5-140.5c-4.5-72.5-6.5-133-5.5-134
		c4-4,38.5,9,40.5,15.5c2,4.5,17.5,243.5,17.5,265c0,4.5-1.5,7.5-3.5,7C2799,4583.9,2789,4582.9,2779,4581.9z"/>
	<path class="st0" d="M2820,4576.4c0-4.5-3.5-63.5-7.5-130.5s-6.5-123-5-124.5c2.5-2.5,36.5,14,40,19.5c1,1.5,4.5,40.5,7,87.5
		c3,46.5,6.5,101,8.5,121l3,36h-23C2824.5,4585.4,2820,4583.9,2820,4576.4z"/>
	<path class="st0" d="M2703,4576.4c-2.5-4.5-19-297-17-298.5c1-0.5,11,1,23,3.5c18.5,4,21,6.5,21,18c0,7.5,3.5,67.5,7.5,133.5
		c10,164,11,147.5-12,147.5C2714.5,4580.4,2704.5,4578.4,2703,4576.4z"/>
	<path class="st0" d="M2152.5,4561.9c-13.5-54.5-10.5-194.5,5-251c13.5-47,21-48.5,24.5-4.5c4,47,13,220,13,248v21h-19.5
		C2158.5,4575.4,2155.5,4573.9,2152.5,4561.9z"/>
	<path class="st0" d="M2582.5,4569.9c-3.5-5.5-17-226-17.5-282v-30l22.5,1.5c22,2,22.5,2.5,22.5,20.5c0,10,3.5,76.5,7.5,148
		s7.5,134,7.5,139c0,6.5-4,8.5-19.5,8.5C2594.5,4575.4,2584,4572.9,2582.5,4569.9z"/>
	<path class="st0" d="M2640,4564.4c0-6.5-3.5-71-7.5-144s-7.5-138-7.5-144c0-11,1.5-11.5,21.5-8.5c11.5,2,21.5,4,22,4.5
		c1,1,16.5,276,16.5,294c0,7.5-4,9-22.5,9C2642.5,4575.4,2640,4573.9,2640,4564.4z"/>
	<path class="st0" d="M2205.5,4446.9c-3-68.5-7-138-8.5-154.5l-3-31l21.5-2c12-1.5,23-1.5,24-0.5c2.5,2,15,225.5,15.5,275.5v36
		h-21.5h-22L2205.5,4446.9z"/>
	<path class="st0" d="M2273,4564.4c-1.5-3.5-4.5-67-7.5-141.5c-3.5-74-7-142.5-8.5-151l-2.5-16.5h24.5h24.5l6,136.5
		c3,74.5,7,145.5,9,157.5l2.5,21h-23C2283.5,4570.4,2274,4567.9,2273,4564.4z"/>
	<path class="st0" d="M2335,4569.4c-5.5-85.5-15-260.5-15-285v-34h21.5h22l6,119c3,65,7,137,8.5,160l3,41h-23
		C2345.5,4570.4,2335,4569.9,2335,4569.4z"/>
	<path class="st0" d="M2395,4559.4c0-6.5-3.5-70-7.5-141.5s-7.5-138.5-7.5-148.5v-19h22.5c20,0,22.5,1.5,22.5,11.5
		c0,6,3.5,69.5,7.5,141s7.5,138.5,7.5,149v18.5h-22.5C2397.5,4570.4,2395,4568.9,2395,4559.4z"/>
	<path class="st0" d="M2455,4546.9c0-13.5-3.5-81.5-7.5-151.5s-7.5-131.5-7.5-136c0-7.5,4.5-9,22-9h22.5l2.5,26.5
		c3.5,34,13,233.5,13,267.5v26h-22.5H2455V4546.9z"/>
	<path class="st0" d="M2510.5,4429.4c-3.5-78-7.5-149-9-157.5l-2.5-16.5h24.5h24.5l6.5,139c3,76,7,147,8.5,157.5l3,18.5h-24.5H2517
		L2510.5,4429.4z"/>
</g>
</svg>
