<?xml version="1.0" encoding="utf-8"?>
<!-- Generator: Adobe Illustrator 24.0.1, SVG Export Plug-In . SVG Version: 6.00 Build 0)  -->
<svg version="1.1" id="Camada_1" xmlns="http://www.w3.org/2000/svg" xmlns:xlink="http://www.w3.org/1999/xlink" x="0px" y="0px"
	 viewBox="0 0 681.86 661.69" style="enable-background:new 0 0 681.86 661.69;" xml:space="preserve">
<style type="text/css">
	.st0{fill:#FFFFFF;}
</style>
<g>
	<path class="st0" d="M33.22,655.81c-5.67,0-11.33,0.03-17-0.01c-5.1-0.04-6.1-1.19-4.55-5.95c1.73-5.33,3.92-10.52,5.77-15.82
		c5.36-15.27,10.75-30.52,15.93-45.85c5.33-15.78,10.34-31.66,15.65-47.44c1.73-5.15,4.16-10.07,5.93-15.21
		c2.53-7.32,4.64-14.78,7.14-22.1c2.18-6.4,4.81-12.66,6.96-19.07c5.46-16.25,10.7-32.58,16.17-48.82
		c1.26-3.74,3.31-7.21,4.65-10.92c4.15-11.48,8.23-22.98,12.13-34.54c2.21-6.57,3.88-13.33,6.04-19.92
		c1.84-5.63,4.17-11.09,6.05-16.71c2.72-8.14,5.1-16.39,7.88-24.51c1.75-5.1,4.09-9.99,5.94-15.05c2.44-6.68,4.66-13.45,6.99-20.17
		c2.37-6.85,4.81-13.67,7.14-20.53c2.44-7.18,4.72-14.42,7.17-21.6c2.24-6.57,4.65-13.07,6.91-19.64c4.13-12,8.13-24.03,12.3-36.01
		c3.42-9.81,7.09-19.53,10.48-29.35c2.52-7.31,4.69-14.73,7.17-22.06c2.01-5.94,4.3-11.78,6.37-17.7
		c5.27-15.1,10.57-30.2,15.72-45.35c5.2-15.28,10.16-30.64,15.37-45.92c2.08-6.1,4.23-12.22,6.99-18.02c0.9-1.89,3.7-3.6,5.89-3.98
		c3.72-0.65,7.65,0.02,11.46-0.26c4.16-0.3,5.24,1.74,4.14,5.14c-3.8,11.76-7.9,23.42-11.67,35.18c-1.91,5.98-3.27,12.13-5.04,18.16
		c-2.18,7.42-4.57,14.77-6.77,22.18c-2.58,8.7-4.94,17.46-7.6,26.14c-2.22,7.26-4.81,14.41-7.07,21.66
		c-5.15,16.54-10.16,33.13-15.3,49.67c-2.74,8.82-5.8,17.54-8.44,26.39c-2.17,7.28-3.8,14.72-5.94,22.01
		c-1.86,6.33-4.21,12.52-6.14,18.83c-2.75,8.99-5.25,18.05-7.96,27.05c-2.01,6.66-4.28,13.23-6.28,19.89
		c-4.36,14.51-8.52,29.07-12.97,43.55c-3.01,9.79-6.48,19.43-9.54,29.2c-2.81,8.99-5.28,18.08-8,27.1
		c-2.73,9.02-5.53,18.01-8.4,26.98c-2.5,7.82-5.21,15.58-7.68,23.41c-2.03,6.47-3.8,13.02-5.75,19.51
		c-2.22,7.41-4.56,14.78-6.75,22.19c-2.61,8.86-4.99,17.8-7.69,26.63c-2.02,6.63-4.51,13.11-6.57,19.72
		c-5.3,17.04-10.49,34.12-15.71,51.19c-3.47,11.35-6.87,22.71-10.37,34.05c-2.33,7.57-4.76,15.1-7.19,22.64
		c-1,3.11-3.11,4.27-6.47,4.12C44.89,655.62,39.05,655.81,33.22,655.81z"/>
	<path class="st0" d="M650.85,655.82c-5.66,0-11.33-0.03-16.99,0.01c-4.08,0.02-5.96-1.66-7.03-5.94
		c-1.99-7.96-5.22-15.61-7.62-23.48c-2.12-6.96-3.75-14.06-5.74-21.06c-1.9-6.66-4-13.26-5.98-19.9
		c-2.91-9.81-5.67-19.67-8.71-29.43c-3.88-12.43-8.08-24.77-11.95-37.2c-3.57-11.49-6.77-23.09-10.36-34.57
		c-2.37-7.57-5.38-14.93-7.69-22.52c-2.5-8.22-4.34-16.64-6.82-24.86c-1.94-6.43-4.62-12.64-6.63-19.06
		c-2.32-7.41-4.2-14.96-6.38-22.42c-2.07-7.09-4.31-14.14-6.43-21.22c-2.61-8.71-5.04-17.47-7.78-26.13
		c-4.02-12.73-8.34-25.36-12.34-38.09c-2.12-6.76-3.7-13.68-5.8-20.45c-2.4-7.72-5.17-15.32-7.65-23.01
		c-1.78-5.5-3.27-11.09-5.03-16.59c-3.05-9.58-6.39-19.08-9.26-28.72c-2.17-7.29-3.56-14.82-5.73-22.12
		c-2.06-6.94-4.68-13.72-7.06-20.57c-0.54-1.57-1.13-3.12-1.61-4.71c-2.85-9.45-5.71-18.91-8.51-28.38
		c-1.73-5.85-3.22-11.78-5.06-17.59c-2.79-8.81-5.93-17.5-8.65-26.33c-1.95-6.32-3.25-12.83-5.19-19.15
		c-2.52-8.19-5.54-16.23-8.08-24.41c-1.51-4.88-2.35-9.97-3.81-14.87c-2.45-8.22-5.18-16.35-7.73-24.54
		c-1.05-3.36,0.3-5.18,3.84-5.18c4.33,0,8.69-0.16,12.97,0.29c1.61,0.17,3.94,1.56,4.44,2.95c3.23,8.8,5.91,17.81,9.04,26.65
		c2.53,7.14,5.6,14.08,8.12,21.21c2.09,5.92,3.59,12.04,5.59,17.99c4.26,12.66,8.72,25.25,13.01,37.89
		c3.71,10.92,7.18,21.92,10.99,32.8c2.07,5.91,4.77,11.6,6.89,17.49c1.9,5.28,3.32,10.73,5.1,16.06c5.11,15.35,10.19,30.71,15.48,46
		c3.98,11.49,8.4,22.83,12.35,34.32c3.64,10.58,6.77,21.33,10.39,31.92c1.97,5.76,4.66,11.27,6.72,17.01
		c2.23,6.22,4.03,12.58,6.12,18.85c5.02,15.02,10.1,30.02,15.16,45.03c3.06,9.05,6.12,18.11,9.22,27.15
		c4.55,13.27,9.09,26.54,13.7,39.79c4.56,13.09,9.21,26.15,13.79,39.24c4.62,13.19,9.26,26.37,13.81,39.59
		c3.06,8.89,5.87,17.86,8.97,26.73c3.98,11.37,8.26,22.63,12.19,34.01c3.71,10.75,6.98,21.65,10.74,32.38
		c2.12,6.06,4.93,11.87,7.27,17.86c0.89,2.29,1.34,4.76,1.92,7.16c0.43,1.77,0.46,3.69,1.18,5.32c2.52,5.72,1.99,6.69-4.41,6.78
		c-5.66,0.08-11.33,0.02-16.99,0.02C650.85,655.81,650.85,655.81,650.85,655.82z"/>
	<path class="st0" d="M353.26,521.3c0,26.14-0.09,52.28,0.09,78.41c0.03,4.55-1.39,6.46-5.99,6.13c-3.31-0.24-6.66-0.2-9.98,0
		c-4.25,0.25-5.47-1.84-5.44-5.75c0.13-21.97,0.17-43.95,0.17-65.92c-0.01-30.96-0.04-61.93-0.17-92.89
		c-0.02-3.84,1.38-5.57,5.25-5.41c3.49,0.14,6.99,0.2,10.47,0.1c4.2-0.12,5.74,1.51,5.71,5.93
		C353.16,468.36,353.25,494.83,353.26,521.3z"/>
	<path class="st0" d="M353.38,217.89c0.07-5-1.75-6.56-6.37-6.19c-2.65,0.22-5.32,0.11-7.98,0.05c-6.67-0.17-7.01,0.15-7,6.95
		c0.01,33.62,0.03,67.23,0.04,100.85c0,0.39-0.01,0.78-0.02,1.17v5.72c0.02,0.2,0.04,0.4,0.06,0.59c0.02,0.16,0.06,0.31,0.08,0.47
		c3.21,3.61,8.01,5.8,12.92,5.27c2.91-0.32,5.49-2.03,7.93-3.91c0.16-1.02,0.23-2.21,0.23-3.62c0.01-16.14-0.01-32.28-0.01-48.43
		C353.26,257.17,353.11,237.53,353.38,217.89z"/>
	<path class="st0" d="M331.93,61.28c0-14.31,0.05-28.62-0.03-42.94c-0.02-3.63,1.53-5.17,5.11-5.05c3.66,0.13,7.33,0.24,10.98,0.07
		c4.17-0.2,5.39,1.61,5.37,5.67c-0.16,25.13-0.1,50.27-0.1,75.4c0,3.16-0.17,6.34,0.06,9.48c0.27,3.78-1.46,5.07-4.99,4.97
		c-3.66-0.1-7.33-0.08-10.98,0.1c-3.83,0.19-5.37-1.35-5.33-5.27c0.14-14.15,0.05-28.29,0.05-42.44
		C332.01,61.28,331.97,61.28,331.93,61.28z"/>
</g>
<path class="st0" d="M346.04,334.33h-6.78c-3.95,0-7.17-3.23-7.17-7.17v0c0-3.95,3.23-7.17,7.17-7.17h6.78
	c3.95,0,7.17,3.23,7.17,7.17v0C353.22,331.1,349.99,334.33,346.04,334.33z"/>
</svg>
